<svg width="750" height="1130" viewBox="0 0 750 1130" fill="none" xmlns="http://www.w3.org/2000/svg">
<g filter="url(#filter0_f_92_3)">
<path d="M102 -76H649C649 -76 606.382 288.265 607 522.91C607.596 749.063 649 1100 649 1100H102C161.421 643.18 160.216 385.635 102 -76Z" fill="url(#paint0_linear_92_3)"/>
</g>
<g filter="url(#filter1_f_92_3)">
<path d="M52.5711 1098.97C52.0021 1103.07 54.8668 1106.86 58.9696 1107.43C63.0725 1108 66.8598 1105.13 67.4289 1101.03L52.5711 1098.97ZM67.4289 1101.03C126.792 673.03 125.584 431.446 67.4331 -0.999531L52.5669 0.999531C110.545 432.157 111.739 672.374 52.5711 1098.97L67.4289 1101.03Z" fill="url(#paint1_linear_92_3)"/>
</g>
<g filter="url(#filter2_f_92_3)">
<path d="M10.5711 1098.97C10.0021 1103.07 12.8668 1106.86 16.9696 1107.43C21.0725 1108 24.8598 1105.13 25.4289 1101.03L10.5711 1098.97ZM25.4289 1101.03C84.7921 673.03 83.5841 431.446 25.4331 -0.999531L10.5669 0.999531C68.5448 432.157 69.7394 672.374 10.5711 1098.97L25.4289 1101.03Z" fill="url(#paint2_linear_92_3)"/>
</g>
<g filter="url(#filter3_f_92_3)">
<path d="M648.007 560.205L655.507 560.184L648.007 560.205ZM682.559 1100.94C683.077 1105.05 686.829 1107.96 690.938 1107.44C695.048 1106.92 697.959 1103.17 697.441 1099.06L682.559 1100.94ZM690 0C682.558 -0.930707 682.558 -0.929112 682.557 -0.926221C682.557 -0.923526 682.557 -0.919338 682.556 -0.913955C682.555 -0.90319 682.553 -0.887252 682.55 -0.866168C682.545 -0.824002 682.537 -0.761256 682.526 -0.678149C682.506 -0.511936 682.475 -0.264283 682.435 0.0630472C682.354 0.717707 682.234 1.69108 682.077 2.96907C681.764 5.52505 681.306 9.29953 680.723 14.1797C679.557 23.94 677.893 38.1235 675.899 55.8279C671.91 91.2351 666.598 140.732 661.304 197.096C650.725 309.757 640.197 450.106 640.507 560.226L655.507 560.184C655.199 450.823 665.667 311.07 676.239 198.498C681.521 142.246 686.823 92.8445 690.804 57.5072C692.795 39.8392 694.455 25.689 695.617 15.9586C696.198 11.0934 696.655 7.33335 696.966 4.79108C697.122 3.51994 697.241 2.55328 697.321 1.90519C697.361 1.58114 697.391 1.33673 697.412 1.17373C697.422 1.09223 697.43 1.03108 697.435 0.990505C697.437 0.970216 697.439 0.95507 697.44 0.945095C697.441 0.940107 697.441 0.93651 697.442 0.934013C697.442 0.931712 697.442 0.930707 690 0ZM640.507 560.226C640.805 666.361 651.333 801.597 661.761 910.146C666.978 964.454 672.176 1012.14 676.071 1046.26C678.018 1063.31 679.639 1076.98 680.774 1086.38C681.341 1091.08 681.787 1094.72 682.092 1097.18C682.244 1098.41 682.36 1099.35 682.439 1099.98C682.478 1100.3 682.508 1100.53 682.528 1100.7C682.538 1100.78 682.546 1100.84 682.551 1100.88C682.554 1100.9 682.556 1100.91 682.557 1100.92C682.558 1100.93 682.558 1100.93 682.558 1100.93C682.559 1100.94 682.559 1100.94 690 1100C697.441 1099.06 697.441 1099.06 697.441 1099.06C697.44 1099.06 697.44 1099.05 697.439 1099.05C697.438 1099.04 697.436 1099.02 697.434 1099C697.429 1098.96 697.421 1098.91 697.412 1098.83C697.392 1098.67 697.362 1098.43 697.323 1098.12C697.245 1097.5 697.13 1096.57 696.978 1095.34C696.676 1092.89 696.232 1089.27 695.666 1084.58C694.535 1075.21 692.917 1061.58 690.974 1044.55C687.087 1010.51 681.899 962.911 676.692 908.712C666.273 800.248 655.803 665.587 655.507 560.184L640.507 560.226Z" fill="url(#paint3_linear_92_3)"/>
</g>
<g filter="url(#filter4_f_92_3)">
<path d="M690.007 560.205L697.507 560.184L690.007 560.205ZM724.559 1100.94C725.077 1105.05 728.829 1107.96 732.938 1107.44C737.048 1106.92 739.959 1103.17 739.441 1099.06L724.559 1100.94ZM732 0C724.558 -0.930707 724.558 -0.929112 724.557 -0.926221C724.557 -0.923526 724.557 -0.919338 724.556 -0.913955C724.555 -0.90319 724.553 -0.887252 724.55 -0.866168C724.545 -0.824002 724.537 -0.761256 724.526 -0.678149C724.506 -0.511936 724.475 -0.264283 724.435 0.0630472C724.354 0.717707 724.234 1.69108 724.077 2.96907C723.764 5.52505 723.306 9.29953 722.723 14.1797C721.557 23.94 719.893 38.1235 717.899 55.8279C713.91 91.2351 708.598 140.732 703.304 197.096C692.725 309.757 682.197 450.106 682.507 560.226L697.507 560.184C697.199 450.823 707.667 311.07 718.239 198.498C723.521 142.246 728.823 92.8445 732.804 57.5072C734.795 39.8392 736.455 25.689 737.617 15.9586C738.198 11.0934 738.655 7.33335 738.966 4.79108C739.122 3.51994 739.241 2.55328 739.321 1.90519C739.361 1.58114 739.391 1.33673 739.412 1.17373C739.422 1.09223 739.43 1.03108 739.435 0.990505C739.437 0.970216 739.439 0.95507 739.44 0.945095C739.441 0.940107 739.441 0.93651 739.442 0.934013C739.442 0.931712 739.442 0.930707 732 0ZM682.507 560.226C682.805 666.361 693.333 801.597 703.761 910.146C708.978 964.454 714.176 1012.14 718.071 1046.26C720.018 1063.31 721.639 1076.98 722.774 1086.38C723.341 1091.08 723.787 1094.72 724.092 1097.18C724.244 1098.41 724.36 1099.35 724.439 1099.98C724.478 1100.3 724.508 1100.53 724.528 1100.7C724.538 1100.78 724.546 1100.84 724.551 1100.88C724.554 1100.9 724.556 1100.91 724.557 1100.92C724.558 1100.93 724.558 1100.93 724.558 1100.93C724.559 1100.94 724.559 1100.94 732 1100C739.441 1099.06 739.441 1099.06 739.441 1099.06C739.44 1099.06 739.44 1099.05 739.439 1099.05C739.438 1099.04 739.436 1099.02 739.434 1099C739.429 1098.96 739.421 1098.91 739.412 1098.83C739.392 1098.67 739.362 1098.43 739.323 1098.12C739.245 1097.5 739.13 1096.57 738.978 1095.34C738.676 1092.89 738.232 1089.27 737.666 1084.58C736.535 1075.21 734.917 1061.58 732.974 1044.55C729.087 1010.51 723.899 962.911 718.692 908.712C708.273 800.248 697.803 665.587 697.507 560.184L682.507 560.226Z" fill="url(#paint4_linear_92_3)"/>
</g>
<defs>
<filter id="filter0_f_92_3" x="72.1" y="-105.9" width="606.8" height="1235.8" filterUnits="userSpaceOnUse" color-interpolation-filters="sRGB">
<feFlood flood-opacity="0" result="BackgroundImageFix"/>
<feBlend mode="normal" in="SourceGraphic" in2="BackgroundImageFix" result="shape"/>
<feGaussianBlur stdDeviation="14.95" result="effect1_foregroundBlur_92_3"/>
</filter>
<filter id="filter1_f_92_3" x="42.599" y="-10.8995" width="78.801" height="1128.3" filterUnits="userSpaceOnUse" color-interpolation-filters="sRGB">
<feFlood flood-opacity="0" result="BackgroundImageFix"/>
<feBlend mode="normal" in="SourceGraphic" in2="BackgroundImageFix" result="shape"/>
<feGaussianBlur stdDeviation="4.95" result="effect1_foregroundBlur_92_3"/>
</filter>
<filter id="filter2_f_92_3" x="0.599024" y="-10.8995" width="78.801" height="1128.3" filterUnits="userSpaceOnUse" color-interpolation-filters="sRGB">
<feFlood flood-opacity="0" result="BackgroundImageFix"/>
<feBlend mode="normal" in="SourceGraphic" in2="BackgroundImageFix" result="shape"/>
<feGaussianBlur stdDeviation="4.95" result="effect1_foregroundBlur_92_3"/>
</filter>
<filter id="filter3_f_92_3" x="630.6" y="-10.8265" width="76.801" height="1128.23" filterUnits="userSpaceOnUse" color-interpolation-filters="sRGB">
<feFlood flood-opacity="0" result="BackgroundImageFix"/>
<feBlend mode="normal" in="SourceGraphic" in2="BackgroundImageFix" result="shape"/>
<feGaussianBlur stdDeviation="4.95" result="effect1_foregroundBlur_92_3"/>
</filter>
<filter id="filter4_f_92_3" x="672.6" y="-10.8265" width="76.801" height="1128.23" filterUnits="userSpaceOnUse" color-interpolation-filters="sRGB">
<feFlood flood-opacity="0" result="BackgroundImageFix"/>
<feBlend mode="normal" in="SourceGraphic" in2="BackgroundImageFix" result="shape"/>
<feGaussianBlur stdDeviation="4.95" result="effect1_foregroundBlur_92_3"/>
</filter>
<linearGradient id="paint0_linear_92_3" x1="375.5" y1="-76" x2="375.5" y2="1100" gradientUnits="userSpaceOnUse">
<stop stop-color="#C7FF85"/>
<stop offset="1" stop-color="#206C3F"/>
</linearGradient>
<linearGradient id="paint1_linear_92_3" x1="82" y1="0" x2="82" y2="1100" gradientUnits="userSpaceOnUse">
<stop stop-color="#C7FF85"/>
<stop offset="1" stop-color="#206C3F"/>
</linearGradient>
<linearGradient id="paint2_linear_92_3" x1="40" y1="0" x2="40" y2="1100" gradientUnits="userSpaceOnUse">
<stop stop-color="#C7FF85"/>
<stop offset="1" stop-color="#206C3F"/>
</linearGradient>
<linearGradient id="paint3_linear_92_3" x1="669" y1="0" x2="669" y2="1100" gradientUnits="userSpaceOnUse">
<stop stop-color="#C7FF85"/>
<stop offset="1" stop-color="#206C3F"/>
</linearGradient>
<linearGradient id="paint4_linear_92_3" x1="711" y1="0" x2="711" y2="1100" gradientUnits="userSpaceOnUse">
<stop stop-color="#C7FF85"/>
<stop offset="1" stop-color="#206C3F"/>
</linearGradient>
</defs>
</svg>
