<svg width="64" height="90" viewBox="0 0 64 90" fill="none" xmlns="http://www.w3.org/2000/svg">
<path d="M9.14286 27.3944H52.2449V78.2614H9.14286V27.3944Z" fill="#D9D9D9"/>
<path d="M31.1372 90C26.7232 88.6898 22.3182 87.3531 17.8953 86.0693C14.3642 85.0458 10.7975 84.1415 7.29299 83.043C6.67193 82.8489 5.88674 81.993 5.82907 81.3842C4.13003 63.1072 2.51528 44.8257 0.873917 26.5443C0.621058 23.6944 0.306093 20.8534 0 17.8447C21.3422 17.8447 42.5691 17.8447 64 17.8447C63.6584 21.696 63.3124 25.5429 62.9753 29.3897C62.1235 39.1216 61.2895 48.8535 60.4156 58.5809C59.728 66.257 59.0138 73.9287 58.2109 81.5916C58.1532 82.1342 57.3458 82.8709 56.7469 83.0386C48.8151 85.2752 40.8612 87.4236 32.9161 89.6118C32.743 89.6603 32.6188 89.8676 32.4724 90C32.0244 90 31.5808 90 31.1372 90ZM31.5276 67.5584C28.755 66.8658 25.978 66.1732 23.2054 65.4806C22.9614 63.2881 22.7351 61.272 22.5133 59.2471C19.7541 59.2471 17.1368 59.2471 14.3819 59.2471C14.7058 63.1866 14.9852 66.9805 15.3667 70.7656C15.4111 71.1847 15.9922 71.7671 16.4314 71.8906C21.4575 73.289 26.5014 74.6081 31.5453 75.9536C31.7094 76.0727 31.8736 76.1874 32.0377 76.3065C32.0377 78.905 32.0377 81.5034 32.0377 84.1415C32.6499 84.1415 32.8761 84.19 33.0713 84.1326C39.2331 82.4871 45.4082 80.8857 51.5389 79.1167C52.2886 78.9005 53.1847 77.8771 53.3222 77.1094C53.6816 75.0537 53.6239 72.9229 53.8058 70.8318C54.3647 64.4439 54.9503 58.056 55.5359 51.668C55.8508 48.2535 56.1702 44.8434 56.5074 41.4333C57.0619 35.8527 57.6297 30.272 58.1931 24.6914C58.3084 23.5621 58.0112 22.918 56.6493 22.9268C48.9704 22.9709 41.287 22.9709 33.6081 22.9268C32.2861 22.918 31.98 23.4959 32.0111 24.6606C32.0688 26.7163 32.0244 28.7721 32.0244 30.8279C25.3569 30.8279 18.685 30.8279 11.8489 30.8279C12.5986 39.2054 13.3084 47.0712 14.027 55.0826C20.1267 55.0826 26.0889 55.0826 32.051 55.0826L32.0022 55.2149C32.0111 58.506 32.051 61.797 32.0067 65.088C31.9933 65.9129 31.6961 66.7335 31.5276 67.5584Z" fill="#2A933C"/>
<path d="M46.22 0.00441155C46.22 3.95275 46.22 7.90549 46.22 11.9376C44.898 11.9376 43.6648 11.9376 42.3206 11.9376C42.3206 10.2216 42.3206 8.55399 42.3206 6.22028C41.1894 7.83491 40.3998 8.95985 39.4593 10.3054C38.5766 9.03044 37.7781 7.87461 36.6823 6.28204C36.6823 8.41282 36.6823 10.0848 36.6823 11.8891C35.2362 11.8891 34.0384 11.8891 32.468 11.8891C32.468 7.86138 32.468 3.93069 32.468 0C33.9452 0 35.4269 0 36.9041 0C37.7426 1.3764 38.581 2.74839 39.5481 4.32773C40.5728 2.67781 41.4024 1.3367 42.2275 0C43.5583 0.00441155 44.8892 0.00441155 46.22 0.00441155Z" fill="white"/>
<path d="M17.8288 0.00441155C17.8288 3.95275 17.8288 7.90549 17.8288 11.9376C16.3915 11.9376 15.1582 11.9376 13.7653 11.9376C13.7653 10.6274 13.7653 9.40101 13.7653 8.08637C12.4522 8.08637 11.2988 8.08637 10.0035 8.08637C10.0035 9.35248 10.0035 10.5789 10.0035 11.9112C8.65045 11.9112 7.43495 11.9112 5.85569 11.9112C5.85569 7.88344 5.85569 3.94392 5.85569 0.00441155C7.18652 0.00441155 8.51736 0.00441155 9.8482 0.00441155C9.91031 1.28376 9.97241 2.56311 10.0301 3.83805C11.3787 3.83805 12.5675 3.83805 13.8407 3.83805C13.8407 2.46164 13.8407 1.23082 13.8407 0.00441155C15.1671 0.00441155 16.498 0.00441155 17.8288 0.00441155Z" fill="white"/>
<path d="M30.6936 0.00441155C30.6936 1.24406 30.6936 2.4837 30.6936 3.8954C29.6644 3.94392 28.5243 4.00127 27.2378 4.06304C27.2378 6.69673 27.2378 9.23337 27.2378 11.8935C25.8804 11.8935 24.6782 11.8935 23.2941 11.8935C23.2941 9.29072 23.2941 6.75849 23.2941 4.07627C22.0475 4.01892 20.974 3.96598 19.6032 3.90422C19.6032 2.58076 19.6032 1.29258 19.6032 0.00441155C23.303 0.00441155 26.9983 0.00441155 30.6936 0.00441155Z" fill="white"/>
<path d="M52.4306 0.00441155C52.4306 2.63369 52.4306 5.26298 52.4306 8.13489C54.4268 8.13489 56.2368 8.13489 58.1088 8.13489C58.1088 9.52894 58.1088 10.6715 58.1088 11.92C54.8882 11.92 51.7519 11.92 48.4381 11.92C48.4381 7.90549 48.4381 3.95275 48.4381 0.00441155C49.7689 0.00441155 51.0997 0.00441155 52.4306 0.00441155Z" fill="white"/>
<path d="M32.0244 30.8323C32.0244 28.7765 32.0688 26.7207 32.0111 24.665C31.98 23.5003 32.2861 22.9224 33.6081 22.9312C41.287 22.9709 48.9704 22.9753 56.6493 22.9312C58.0112 22.9224 58.3084 23.5665 58.1931 24.6958C57.6342 30.2765 57.0619 35.8571 56.5074 41.4377C56.1702 44.8478 55.8508 48.2579 55.5359 51.6725C54.9503 58.0604 54.3603 64.4483 53.8058 70.8362C53.6239 72.9273 53.6816 75.0537 53.3222 77.1139C53.1892 77.8815 52.2931 78.9049 51.5389 79.1211C45.4126 80.8857 39.2375 82.4915 33.0713 84.137C32.8717 84.19 32.6455 84.1459 32.0377 84.1459C32.0377 81.5122 32.0377 78.9138 32.0377 76.311C36.913 74.9478 41.775 73.5493 46.668 72.2435C48.0654 71.8729 48.6954 71.2421 48.7974 69.7157C49.139 64.5277 49.6536 59.353 50.0927 54.1694C50.2879 51.8798 50.4521 49.5858 50.6428 47.1109C44.2415 47.1109 38.1329 47.1109 32.0244 47.1109C32.0288 44.6493 32.0288 42.1832 32.0333 39.7216C32.1708 39.5892 32.3127 39.4569 32.4503 39.3245C38.062 39.2981 43.6692 39.2937 49.2809 39.2319C50.0129 39.2231 50.7448 38.9275 51.4768 38.7643C51.6321 36.285 51.7873 33.8057 51.9426 31.3264C51.814 31.2249 51.6853 31.1279 51.5611 31.0264C45.1908 31.0264 38.8205 31.0264 32.4503 31.0264C32.3083 30.9558 32.1664 30.8941 32.0244 30.8323Z" fill="#0D6E38"/>
<path d="M32.0333 67.929C31.8647 67.8055 31.6961 67.682 31.5276 67.5584C31.6961 66.7335 31.9933 65.9129 32.0022 65.0836C32.051 61.7926 32.0066 58.5015 31.9978 55.2105C35.2273 55.2105 38.4612 55.2105 41.7927 55.2105C41.5088 58.4265 41.2959 61.4926 40.9011 64.5321C40.839 65.013 40.0272 65.5909 39.4505 65.7762C37.0017 66.5703 34.5086 67.2276 32.0333 67.929Z" fill="#0D6E38"/>
<path d="M32.0244 47.1065C31.878 47.1595 31.7316 47.2124 31.5852 47.2653C28.2759 47.2653 24.9621 47.2653 21.4664 47.2653C21.249 44.8037 21.045 42.4964 20.8454 40.1892C21.3067 39.8672 21.7592 39.276 22.225 39.2716C25.4944 39.2187 28.7638 39.2892 32.0333 39.3157C32.0288 39.4481 32.0288 39.5848 32.0333 39.7172C32.0333 42.1788 32.0288 44.6449 32.0244 47.1065Z" fill="#206C3F"/>
<path d="M32.0333 39.3157C32.1752 39.2804 32.3127 39.2848 32.4503 39.3201C32.3127 39.4525 32.1708 39.5848 32.0333 39.7172C32.0288 39.5848 32.0288 39.4481 32.0333 39.3157Z" fill="#206C3F"/>
</svg>
