<svg width="241" height="241" viewBox="0 0 241 241" fill="none" xmlns="http://www.w3.org/2000/svg">
<g filter="url(#filter0_ddii_61_4)">
<circle cx="120.5" cy="120.5" r="63" fill="url(#paint0_linear_61_4)" fill-opacity="0.7" shape-rendering="crispEdges"/>
</g>
<g clip-path="url(#clip0_61_4)">
<path d="M91.5053 95.2803C91.5318 94.5862 91.8099 93.9769 92.1782 93.41C92.7742 92.4987 93.6193 91.9159 94.6684 91.6351C94.8829 91.5795 95.1081 91.5742 95.3306 91.5477C95.4075 91.5344 95.4843 91.5212 95.5638 91.5106C95.6883 91.5079 95.8101 91.5 95.932 91.5C112.288 91.5 128.643 91.5 144.999 91.5C145.121 91.5 145.243 91.5079 145.365 91.5106C145.487 91.5212 145.606 91.5318 145.728 91.5424C147.873 91.7729 149.421 93.5319 149.489 95.532C149.492 95.5797 149.497 95.6247 149.5 95.6724C149.497 95.7942 149.489 95.9161 149.489 96.038C149.489 112.349 149.489 128.659 149.489 144.97C149.489 145.084 149.497 145.195 149.5 145.309C149.397 147.672 147.783 149.058 146.064 149.397C145.781 149.452 145.487 149.466 145.198 149.497C145.084 149.495 144.973 149.487 144.859 149.487C128.614 149.487 112.37 149.487 96.1227 149.487C96.0088 149.487 95.8976 149.495 95.7836 149.497C94.3001 149.447 93.0868 148.867 92.2259 147.638C91.8205 147.06 91.5424 146.422 91.5026 145.701C91.5053 145.624 91.5053 145.55 91.5079 145.473C91.5079 145.365 91.5 145.253 91.5 145.14C91.5 128.699 91.5 112.259 91.5 95.8181C91.5 95.6962 91.5079 95.5744 91.5132 95.4525C91.5106 95.3942 91.5079 95.3386 91.5053 95.2803ZM132.36 140.906C132.469 140.922 132.577 140.954 132.689 140.954C135.319 140.957 137.947 140.957 140.578 140.954C140.684 140.954 140.792 140.914 140.898 140.893C140.904 140.877 140.909 140.861 140.914 140.843C140.93 140.723 140.957 140.602 140.957 140.482C140.959 137.555 140.959 134.63 140.957 131.703C140.957 131.584 140.927 131.462 140.914 131.343C140.909 131.324 140.904 131.306 140.898 131.29C140.901 129.147 140.904 127.004 140.901 124.863C140.901 124.516 140.866 124.172 140.848 123.825C140.829 123.621 140.808 123.419 140.795 123.215C140.763 122.76 140.768 122.296 140.7 121.846C140.567 121.001 140.413 120.156 140.225 119.324C139.844 117.639 139.102 116.134 137.846 114.921C136.419 113.541 134.641 112.937 132.72 112.701C131.934 112.606 131.136 112.603 130.342 112.584C129.234 112.561 128.161 112.767 127.123 113.149C125.128 113.88 123.544 115.117 122.479 116.979C122.442 116.889 122.373 116.802 122.373 116.712C122.365 115.668 122.37 114.622 122.365 113.578C122.365 113.472 122.325 113.369 122.307 113.263C119.578 113.263 116.85 113.26 114.121 113.26C114.1 113.369 114.06 113.475 114.06 113.583C114.057 122.58 114.057 131.576 114.06 140.572C114.06 140.681 114.094 140.79 114.116 140.898V140.896C114.224 140.914 114.33 140.951 114.439 140.951C117.069 140.954 119.697 140.954 122.328 140.951C122.437 140.951 122.545 140.919 122.654 140.904L122.648 140.898C122.667 140.782 122.704 140.668 122.704 140.551C122.707 136.045 122.707 131.542 122.707 127.035C122.707 126.718 122.707 126.397 122.704 126.079C122.728 125.782 122.739 125.483 122.778 125.189C122.903 124.241 123.067 123.3 123.525 122.442C123.888 121.764 124.37 121.202 125.035 120.802C126.063 120.182 127.197 120.079 128.349 120.174C128.871 120.217 129.409 120.341 129.891 120.545C131.017 121.022 131.571 121.989 131.918 123.107C132.225 124.095 132.236 125.12 132.318 126.14C132.315 126.545 132.312 126.948 132.312 127.353C132.312 131.756 132.312 136.159 132.315 140.559C132.315 140.673 132.352 140.787 132.373 140.901L132.36 140.906ZM108.68 140.901C108.695 140.803 108.733 140.705 108.733 140.607C108.735 131.589 108.735 122.572 108.733 113.554C108.733 113.456 108.693 113.361 108.672 113.263C106.913 113.26 105.151 113.255 103.392 113.255C102.308 113.255 101.228 113.26 100.144 113.265C100.128 113.257 100.11 113.255 100.091 113.26C100.07 113.387 100.03 113.514 100.03 113.641C100.028 122.59 100.028 131.536 100.03 140.485C100.03 140.604 100.057 140.726 100.07 140.845C100.094 140.864 100.118 140.882 100.141 140.898L100.136 140.912C100.237 140.925 100.337 140.951 100.438 140.951C103.085 140.954 105.734 140.954 108.38 140.951C108.484 140.954 108.582 140.919 108.68 140.901ZM109.355 104.422C109.435 101.983 107.302 99.5401 104.467 99.5057C101.577 99.4712 99.3997 101.85 99.405 104.465C99.4129 107.148 101.519 109.45 104.388 109.461C107.101 109.474 109.411 107.265 109.355 104.422Z" fill="#DDFF8A"/>
</g>
<defs>
<filter id="filter0_ddii_61_4" x="0" y="0" width="241" height="241" filterUnits="userSpaceOnUse" color-interpolation-filters="sRGB">
<feFlood flood-opacity="0" result="BackgroundImageFix"/>
<feColorMatrix in="SourceAlpha" type="matrix" values="0 0 0 0 0 0 0 0 0 0 0 0 0 0 0 0 0 0 127 0" result="hardAlpha"/>
<feOffset dx="11" dy="10"/>
<feGaussianBlur stdDeviation="10.85"/>
<feComposite in2="hardAlpha" operator="out"/>
<feColorMatrix type="matrix" values="0 0 0 0 0 0 0 0 0 0 0 0 0 0 0 0 0 0 0.25 0"/>
<feBlend mode="normal" in2="BackgroundImageFix" result="effect1_dropShadow_61_4"/>
<feColorMatrix in="SourceAlpha" type="matrix" values="0 0 0 0 0 0 0 0 0 0 0 0 0 0 0 0 0 0 127 0" result="hardAlpha"/>
<feMorphology radius="4" operator="dilate" in="SourceAlpha" result="effect2_dropShadow_61_4"/>
<feOffset/>
<feGaussianBlur stdDeviation="26.75"/>
<feComposite in2="hardAlpha" operator="out"/>
<feColorMatrix type="matrix" values="0 0 0 0 0.5625 0 0 0 0 1 0 0 0 0 0.58 0 0 0 0.25 0"/>
<feBlend mode="normal" in2="effect1_dropShadow_61_4" result="effect2_dropShadow_61_4"/>
<feBlend mode="normal" in="SourceGraphic" in2="effect2_dropShadow_61_4" result="shape"/>
<feColorMatrix in="SourceAlpha" type="matrix" values="0 0 0 0 0 0 0 0 0 0 0 0 0 0 0 0 0 0 127 0" result="hardAlpha"/>
<feMorphology radius="13" operator="erode" in="SourceAlpha" result="effect3_innerShadow_61_4"/>
<feOffset dx="-20" dy="-17"/>
<feGaussianBlur stdDeviation="18.2"/>
<feComposite in2="hardAlpha" operator="arithmetic" k2="-1" k3="1"/>
<feColorMatrix type="matrix" values="0 0 0 0 0 0 0 0 0 0 0 0 0 0 0 0 0 0 0.25 0"/>
<feBlend mode="normal" in2="shape" result="effect3_innerShadow_61_4"/>
<feColorMatrix in="SourceAlpha" type="matrix" values="0 0 0 0 0 0 0 0 0 0 0 0 0 0 0 0 0 0 127 0" result="hardAlpha"/>
<feMorphology radius="10" operator="erode" in="SourceAlpha" result="effect4_innerShadow_61_4"/>
<feOffset/>
<feGaussianBlur stdDeviation="20.75"/>
<feComposite in2="hardAlpha" operator="arithmetic" k2="-1" k3="1"/>
<feColorMatrix type="matrix" values="0 0 0 0 0.560784 0 0 0 0 1 0 0 0 0 0.580392 0 0 0 0.25 0"/>
<feBlend mode="normal" in2="effect3_innerShadow_61_4" result="effect4_innerShadow_61_4"/>
</filter>
<linearGradient id="paint0_linear_61_4" x1="120.5" y1="57.5" x2="120.5" y2="183.5" gradientUnits="userSpaceOnUse">
<stop stop-color="#57DA42"/>
<stop offset="1" stop-color="#B5B901"/>
</linearGradient>
<clipPath id="clip0_61_4">
<rect width="58" height="58" fill="white" transform="translate(91.5 91.5)"/>
</clipPath>
</defs>
</svg>
