<svg width="89" height="66" viewBox="0 0 89 66" fill="none" xmlns="http://www.w3.org/2000/svg">
<mask id="mask0_77_90" style="mask-type:luminance" maskUnits="userSpaceOnUse" x="0" y="0" width="89" height="66">
<path d="M0 0H89V65.6496H0V0Z" fill="white"/>
</mask>
<g mask="url(#mask0_77_90)">
<path d="M89 31.3596V34.29C88.9722 34.449 88.937 34.605 88.9187 34.7633C88.7671 36.038 88.6689 37.3208 88.4594 38.5861C87.7752 42.6982 86.2963 46.5203 84.0988 50.0544C80.7615 55.4201 76.2499 59.5117 70.5803 62.3059C67.308 63.9263 63.7799 64.9676 60.1523 65.3836C59.3465 65.4767 58.5415 65.5602 57.7357 65.6488H26.4693C26.3118 65.6195 26.155 65.5727 25.9961 65.5631C22.8433 65.3646 19.81 64.6459 16.9188 63.3807C10.6243 60.626 5.93114 56.1615 2.85899 50.0163C1.50146 47.3058 0.622926 44.3808 0.262239 41.3707C0.173605 40.6389 0.0871687 39.9077 0 39.1766V36.3333C0.0300329 36.1758 0.0761811 36.0183 0.0857037 35.86C0.249053 33.1281 0.809424 30.4753 1.79612 27.9258C4.45146 21.0656 9.0802 15.9776 15.6581 12.6845C19.0709 10.9753 22.7086 10.0771 26.5132 9.87784C28.376 9.78114 30.2373 9.88517 32.0891 10.1335C32.2568 10.1562 32.4986 10.0815 32.615 9.96209C35.2777 7.24189 38.3096 5.03233 41.7282 3.35757C45.0443 1.73337 48.5339 0.68646 52.2075 0.267405C53.0718 0.168502 53.9384 0.0871817 54.8042 -0.00219727H57.4698C57.6442 0.0249095 57.8192 0.0556793 57.9936 0.0761925C59.3143 0.230042 60.6423 0.326747 61.9506 0.545798C66.0321 1.23079 69.8317 2.69602 73.3477 4.87262C78.739 8.21041 82.8476 12.7284 85.6546 18.4165C87.278 21.6907 88.3202 25.2222 88.7348 28.8533C88.8301 29.6892 88.9114 30.5251 89 31.3596ZM39.2369 12.3973C39.2904 12.4676 39.3036 12.5006 39.3263 12.5116C41.1568 13.414 42.9064 14.4721 44.5557 15.6743C44.6597 15.7497 44.9175 15.7182 45.0435 15.6391C49.5763 12.7665 54.49 11.7753 59.7684 12.7116C64.9407 13.6288 69.1497 16.2135 72.3654 20.3418C76.0067 25.0137 77.3948 30.2965 76.3898 36.1743C75.7159 40.1136 74.1381 43.6477 71.4564 46.6082C66.5632 52.0054 60.4358 54.2376 53.2227 53.2926C48.7823 52.7109 44.949 50.7951 41.7765 47.5884C37.7045 43.4748 33.6061 39.3883 29.5224 35.2856C28.9781 34.7391 28.3723 34.2995 27.5885 34.2036C26.2195 34.0358 24.9771 34.7193 24.386 35.9494C23.8586 37.0476 23.9267 38.2857 25.0709 39.411C29.6234 43.8807 34.1357 48.3914 38.6831 52.8655C39.4614 53.6351 40.2961 54.3455 41.1803 54.9908C44.5022 57.4033 48.2475 58.7374 52.3034 59.2744C55.4869 59.6949 58.6455 59.6048 61.7799 58.9C67.7587 57.5571 72.7112 54.5051 76.6118 49.7958C79.8326 45.9042 81.7804 41.4323 82.4594 36.4117C82.8529 33.5487 82.7707 30.6404 82.2162 27.8042C81.3116 23.1667 79.3499 19.0172 76.2067 15.4853C70.2096 8.75035 62.6648 5.7437 53.6864 6.41477C50.2326 6.67265 46.9656 7.68732 43.8913 9.29688C42.2323 10.159 40.6717 11.1985 39.2369 12.3973ZM37.0401 59.4136C36.9166 59.2991 36.7935 59.1841 36.6709 59.0685C34.8096 57.311 32.9381 55.5644 31.0987 53.7842C30.7427 53.4398 30.4153 53.2721 29.9113 53.2838C28.0486 53.3292 26.1843 53.3373 24.3486 52.9226C15.2216 50.8581 9.92185 40.9334 13.2855 32.2006C15.9387 25.3148 23.2836 21.1213 30.5266 22.4143C33.7731 22.9938 36.6226 24.3682 38.9615 26.7807C41.8139 29.7258 44.7512 32.5867 47.6344 35.5018C48.2907 36.1655 49.0445 36.4681 49.9535 36.3384C51.1285 36.1706 52.0639 35.6109 52.4888 34.4585C52.9048 33.3244 52.7034 32.2504 51.8449 31.3808C48.8189 28.3148 45.8647 25.1719 42.7163 22.2363C36.6101 16.5402 29.4096 14.8464 21.4457 17.2685C10.7342 20.5235 4.46538 31.5859 6.9127 42.5019C9.14319 52.4479 17.8403 59.4282 28.0171 59.437C30.8585 59.4399 33.7006 59.4385 36.542 59.437C36.6827 59.437 36.8233 59.4246 37.0401 59.4136Z" fill="#87C440"/>
</g>
</svg>
