<svg width="63" height="89" viewBox="0 0 63 89" fill="none" xmlns="http://www.w3.org/2000/svg">
<path d="M63 17.4906L57.2605 81.8416L31.4614 89L5.73338 81.8517L0 17.4906H63Z" fill="#2A933C"/>
<path d="M52.3469 77.7439L57.2517 22.7531H31.5V83.5284L52.3469 77.7439Z" fill="#0D6E38"/>
<path d="M13.1437 46.6237L13.8505 54.5172H31.5V46.6237H13.1437ZM31.5 30.6468H11.7233L12.4402 38.5405H31.5V30.6468ZM31.5 75.3369V67.1243L31.4654 67.1335L22.6817 64.7597L22.1202 58.4641H14.2029L15.3079 70.8583L31.4637 75.347L31.5 75.3369Z" fill="#EBEBEB"/>
<path d="M14.8266 0H24.3791V3.99805H18.8213V7.99609H24.3791V11.9941H14.8266V0ZM26.2896 0H35.842V3.47656H30.2842V4.17187H35.842V12.168H26.2896V8.51758H31.8474V7.82227H26.2896V0ZM37.7525 0H47.305V3.47656H41.7472V4.17187H47.305V12.168H37.7525V8.51758H43.3103V7.82227H37.7525V0Z" fill="white"/>
<path d="M41.1846 54.5172L40.2692 64.7546L31.4727 67.1309V75.3432L47.6414 70.8583L49.6134 48.7433L49.8058 46.6237L51.2296 30.6468H31.4727V38.5405H42.5862L41.8686 46.6237H31.4727V54.5172H41.1846Z" fill="white"/>
</svg>
