<svg width="42" height="46" viewBox="0 0 42 46" fill="none" xmlns="http://www.w3.org/2000/svg">
<path fill-rule="evenodd" clip-rule="evenodd" d="M2.03237 33.8058C3.15482 33.8058 4.06474 34.7157 4.06474 35.8381V41.2578C4.06474 41.632 4.36805 41.9353 4.7422 41.9353H37.2601C37.6343 41.9353 37.9376 41.632 37.9376 41.2578V35.8381C37.9376 34.7157 38.8475 33.8058 39.97 33.8058C41.0924 33.8058 42.0023 34.7157 42.0023 35.8381V41.2578C42.0023 43.8768 39.8792 46 37.2601 46H4.7422C2.12316 46 0 43.8768 0 41.2578V35.8381C0 34.7157 0.909923 33.8058 2.03237 33.8058Z" fill="#87C440"/>
<path fill-rule="evenodd" clip-rule="evenodd" d="M17.581 33.4732C16.1871 33.4732 15.0243 32.4079 14.9026 31.0193C14.4862 26.2698 14.4128 21.4968 14.6826 16.7377C14.0134 16.7007 13.3443 16.6579 12.6756 16.6091L8.63921 16.3149C7.08295 16.2014 6.21299 14.4662 7.05317 13.1513C9.93114 8.64732 13.6395 4.73182 17.9805 1.6135L19.5976 0.451848C20.4363 -0.150617 21.566 -0.150615 22.4046 0.451848L24.0218 1.6135C28.3628 4.73182 32.0711 8.64732 34.9491 13.1513C35.7893 14.4662 34.9193 16.2014 33.3631 16.3149L29.3266 16.6091C28.6579 16.6579 27.9889 16.7007 27.3196 16.7377C27.5895 21.4968 27.516 26.2698 27.0997 31.0193C26.9779 32.4079 25.8152 33.4732 24.4213 33.4732H17.581Z" fill="#87C440"/>
</svg>
