<svg width="46" height="46" viewBox="0 0 46 46" fill="none" xmlns="http://www.w3.org/2000/svg">
<path fill-rule="evenodd" clip-rule="evenodd" d="M28.9849 31.789C21.9782 37.4008 11.7219 36.9591 5.22679 30.464C-1.74226 23.4949 -1.74226 12.1958 5.22679 5.22679C12.1958 -1.74226 23.4949 -1.74226 30.464 5.22679C36.9591 11.7219 37.4008 21.9782 31.789 28.9849L45.4193 42.6151C46.1936 43.3895 46.1936 44.6449 45.4193 45.4192C44.6449 46.1936 43.3895 46.1936 42.6151 45.4192L28.9849 31.789ZM8.03092 27.6598C2.61054 22.2395 2.61054 13.4513 8.03092 8.03092C13.4513 2.61054 22.2395 2.61055 27.6598 8.03092C33.0762 13.4473 33.0802 22.2266 27.6718 27.6479C27.6677 27.6518 27.6638 27.6558 27.6598 27.6598C27.6558 27.6637 27.6518 27.6677 27.6479 27.6717C22.2266 33.0802 13.4473 33.0762 8.03092 27.6598Z" fill="#87C440"/>
</svg>
