<svg width="34" height="46" viewBox="0 0 34 46" fill="none" xmlns="http://www.w3.org/2000/svg">
<path fill-rule="evenodd" clip-rule="evenodd" d="M8.5 6.33424C8.5 2.83594 11.2908 0 14.7333 0H19.2667C22.7092 0 25.5 2.83594 25.5 6.33424V10.941C25.5 11.895 24.7389 12.6685 23.8 12.6685H10.2C9.26112 12.6685 8.5 11.895 8.5 10.941V6.33424ZM14.7333 3.45504C13.1685 3.45504 11.9 4.7441 11.9 6.33424V9.21344H22.1V6.33424C22.1 4.7441 20.8315 3.45504 19.2667 3.45504H14.7333Z" fill="#87C440"/>
<path fill-rule="evenodd" clip-rule="evenodd" d="M4.5037 6.17017C4.79026 6.03057 5.10842 6.25276 5.10784 6.57569L5.1 10.941C5.1 13.8032 7.38335 16.1235 10.2 16.1235H23.8C26.6167 16.1235 28.9 13.8032 28.9 10.941V6.57439C28.9 6.25182 29.2179 6.03021 29.5042 6.16966C32.1904 7.47831 34 10.2656 34 13.4412V37.6021C34 41.5426 31.1116 44.866 27.2635 45.353C20.4475 46.2157 13.5525 46.2157 6.73647 45.353C2.88844 44.866 0 41.5426 0 37.6021V13.4412C0 10.266 1.81699 7.47904 4.5037 6.17017ZM23.8 22.4578C24.7389 22.4578 25.5 23.2312 25.5 24.1853C25.5 25.1394 24.7389 25.9128 23.8 25.9128H10.2C9.26112 25.9128 8.5 25.1394 8.5 24.1853C8.5 23.2312 9.26112 22.4578 10.2 22.4578H23.8ZM21.5333 29.3678C22.4722 29.3678 23.2333 30.1413 23.2333 31.0954C23.2333 32.0494 22.4722 32.8229 21.5333 32.8229H10.2C9.26112 32.8229 8.5 32.0494 8.5 31.0954C8.5 30.1413 9.26112 29.3678 10.2 29.3678H21.5333Z" fill="#87C440"/>
</svg>
