<svg width="1094" height="16" viewBox="0 0 1094 16" fill="none" xmlns="http://www.w3.org/2000/svg">
<path d="M0 8C0 12.4183 3.58172 16 8 16C12.4183 16 16 12.4183 16 8C16 3.58172 12.4183 0 8 0C3.58172 0 0 3.58172 0 8ZM270 8C270 12.4183 273.582 16 278 16C282.418 16 286 12.4183 286 8C286 3.58172 282.418 0 278 0C273.582 0 270 3.58172 270 8ZM8 9.5H10.9348V6.5H8V9.5ZM16.8043 9.5H22.6739V6.5H16.8043V9.5ZM28.5435 9.5H34.413V6.5H28.5435V9.5ZM40.2826 9.5H46.1522V6.5H40.2826V9.5ZM52.0217 9.5H57.8913V6.5H52.0217V9.5ZM63.7609 9.5H69.6304V6.5H63.7609V9.5ZM75.5 9.5H81.3696V6.5H75.5V9.5ZM87.2391 9.5H93.1087V6.5H87.2391V9.5ZM98.9783 9.5H104.848V6.5H98.9783V9.5ZM110.717 9.5H116.587V6.5H110.717V9.5ZM122.457 9.5H128.326V6.5H122.457V9.5ZM134.196 9.5H140.065V6.5H134.196V9.5ZM145.935 9.5H151.804V6.5H145.935V9.5ZM157.674 9.5H163.544V6.5H157.674V9.5ZM169.413 9.5H175.283V6.5H169.413V9.5ZM181.152 9.5H187.022V6.5H181.152V9.5ZM192.891 9.5H198.761V6.5H192.891V9.5ZM204.63 9.5H210.5V6.5H204.63V9.5ZM216.37 9.5H222.239V6.5H216.37V9.5ZM228.109 9.5H233.978V6.5H228.109V9.5ZM239.848 9.5H245.717V6.5H239.848V9.5ZM251.587 9.5H257.457V6.5H251.587V9.5ZM263.326 9.5H269.196V6.5H263.326V9.5ZM275.065 9.5H278V6.5H275.065V9.5Z" fill="#87C440"/>
<path d="M270 8C270 12.4183 273.582 16 278 16C282.418 16 286 12.4183 286 8C286 3.58172 282.418 0 278 0C273.582 0 270 3.58172 270 8ZM540 8C540 12.4183 543.582 16 548 16C552.418 16 556 12.4183 556 8C556 3.58172 552.418 0 548 0C543.582 0 540 3.58172 540 8ZM278 9.5H280.935V6.5H278V9.5ZM286.804 9.5H292.674V6.5H286.804V9.5ZM298.543 9.5H304.413V6.5H298.543V9.5ZM310.283 9.5H316.152V6.5H310.283V9.5ZM322.022 9.5H327.891V6.5H322.022V9.5ZM333.761 9.5H339.63V6.5H333.761V9.5ZM345.5 9.5H351.37V6.5H345.5V9.5ZM357.239 9.5H363.109V6.5H357.239V9.5ZM368.978 9.5H374.848V6.5H368.978V9.5ZM380.717 9.5H386.587V6.5H380.717V9.5ZM392.457 9.5H398.326V6.5H392.457V9.5ZM404.196 9.5H410.065V6.5H404.196V9.5ZM415.935 9.5H421.804V6.5H415.935V9.5ZM427.674 9.5H433.544V6.5H427.674V9.5ZM439.413 9.5H445.283V6.5H439.413V9.5ZM451.152 9.5H457.022V6.5H451.152V9.5ZM462.891 9.5H468.761V6.5H462.891V9.5ZM474.63 9.5H480.5V6.5H474.63V9.5ZM486.37 9.5H492.239V6.5H486.37V9.5ZM498.109 9.5H503.978V6.5H498.109V9.5ZM509.848 9.5H515.717V6.5H509.848V9.5ZM521.587 9.5H527.457V6.5H521.587V9.5ZM533.326 9.5H539.196V6.5H533.326V9.5ZM545.065 9.5H548V6.5H545.065V9.5Z" fill="#87C440"/>
<path d="M538 8C538 12.4183 541.582 16 546 16C550.418 16 554 12.4183 554 8C554 3.58172 550.418 0 546 0C541.582 0 538 3.58172 538 8ZM808 8C808 12.4183 811.582 16 816 16C820.418 16 824 12.4183 824 8C824 3.58172 820.418 0 816 0C811.582 0 808 3.58172 808 8ZM546 9.5H548.935V6.5H546V9.5ZM554.804 9.5H560.674V6.5H554.804V9.5ZM566.543 9.5H572.413V6.5H566.543V9.5ZM578.283 9.5H584.152V6.5H578.283V9.5ZM590.022 9.5H595.891V6.5H590.022V9.5ZM601.761 9.5H607.63V6.5H601.761V9.5ZM613.5 9.5H619.37V6.5H613.5V9.5ZM625.239 9.5H631.109V6.5H625.239V9.5ZM636.978 9.5H642.848V6.5H636.978V9.5ZM648.717 9.5H654.587V6.5H648.717V9.5ZM660.457 9.5H666.326V6.5H660.457V9.5ZM672.196 9.5H678.065V6.5H672.196V9.5ZM683.935 9.5H689.804V6.5H683.935V9.5ZM695.674 9.5H701.544V6.5H695.674V9.5ZM707.413 9.5H713.283V6.5H707.413V9.5ZM719.152 9.5H725.022V6.5H719.152V9.5ZM730.891 9.5H736.761V6.5H730.891V9.5ZM742.63 9.5H748.5V6.5H742.63V9.5ZM754.37 9.5H760.239V6.5H754.37V9.5ZM766.109 9.5H771.978V6.5H766.109V9.5ZM777.848 9.5H783.717V6.5H777.848V9.5ZM789.587 9.5H795.457V6.5H789.587V9.5ZM801.326 9.5H807.196V6.5H801.326V9.5ZM813.065 9.5H816V6.5H813.065V9.5Z" fill="#87C440"/>
<path d="M808 8C808 12.4183 811.582 16 816 16C820.418 16 824 12.4183 824 8C824 3.58172 820.418 0 816 0C811.582 0 808 3.58172 808 8ZM1078 8C1078 12.4183 1081.58 16 1086 16C1090.42 16 1094 12.4183 1094 8C1094 3.58172 1090.42 0 1086 0C1081.58 0 1078 3.58172 1078 8ZM816 9.5H818.935V6.5H816V9.5ZM824.804 9.5H830.674V6.5H824.804V9.5ZM836.543 9.5H842.413V6.5H836.543V9.5ZM848.283 9.5H854.152V6.5H848.283V9.5ZM860.022 9.5H865.891V6.5H860.022V9.5ZM871.761 9.5H877.63V6.5H871.761V9.5ZM883.5 9.5H889.37V6.5H883.5V9.5ZM895.239 9.5H901.109V6.5H895.239V9.5ZM906.978 9.5H912.848V6.5H906.978V9.5ZM918.717 9.5H924.587V6.5H918.717V9.5ZM930.457 9.5H936.326V6.5H930.457V9.5ZM942.196 9.5H948.065V6.5H942.196V9.5ZM953.935 9.5H959.804V6.5H953.935V9.5ZM965.674 9.5H971.544V6.5H965.674V9.5ZM977.413 9.5H983.283V6.5H977.413V9.5ZM989.152 9.5H995.022V6.5H989.152V9.5ZM1000.89 9.5H1006.76V6.5H1000.89V9.5ZM1012.63 9.5H1018.5V6.5H1012.63V9.5ZM1024.37 9.5H1030.24V6.5H1024.37V9.5ZM1036.11 9.5H1041.98V6.5H1036.11V9.5ZM1047.85 9.5H1053.72V6.5H1047.85V9.5ZM1059.59 9.5H1065.46V6.5H1059.59V9.5ZM1071.33 9.5H1077.2V6.5H1071.33V9.5ZM1083.07 9.5H1086V6.5H1083.07V9.5Z" fill="#87C440"/>
</svg>
