<svg width="66" height="98" viewBox="0 0 66 98" fill="none" xmlns="http://www.w3.org/2000/svg">
<path d="M16.5 98C25.608 98 33 90.6827 33 81.6667V65.3333H16.5C7.392 65.3333 0 72.6507 0 81.6667C0 90.6827 7.392 98 16.5 98Z" fill="#206C3F"/>
<path d="M0 49C0 39.984 7.392 32.6667 16.5 32.6667H33V65.3333H16.5C7.392 65.3333 0 58.016 0 49Z" fill="#0B4B25"/>
<path d="M0.000479731 16.3333C0.000479731 7.31733 7.39248 1.5471e-07 16.5005 1.5471e-07H33.0005L33 32.6667H16.5C7.392 32.6667 0.000479731 25.3493 0.000479731 16.3333Z" fill="#C7FF85"/>
<path d="M33.0005 1.5471e-07L49.5 0C58.608 0 66 7.31733 66 16.3333C66 25.3493 58.608 32.6667 49.5 32.6667H33L33.0005 1.5471e-07Z" fill="#87C440"/>
<path d="M66 49C66 58.016 58.608 65.3333 49.5 65.3333C40.392 65.3333 33 58.016 33 49C33 39.984 40.392 32.6667 49.5 32.6667C58.608 32.6667 66 39.984 66 49Z" fill="#5C842D"/>
</svg>
