<svg width="66" height="66" viewBox="0 0 66 66" fill="none" xmlns="http://www.w3.org/2000/svg">
<path d="M0 5C0 2.23858 2.23858 0 5 0H61C63.7614 0 66 2.23858 66 5V61C66 63.7614 63.7614 66 61 66H5C2.23858 66 0 63.7614 0 61V5Z" fill="#87C440"/>
<path d="M44.3353 51.5628C45.6647 53.7334 47.3943 55.329 50.4534 55.329C53.0232 55.329 54.6648 54.0446 54.6648 52.2699C54.6648 50.1432 52.9781 49.39 50.1496 48.1528L48.5991 47.4875C44.1236 45.5809 41.1505 43.1923 41.1505 38.1428C41.1505 33.4913 44.6946 29.9504 50.2334 29.9504C54.1766 29.9504 57.0115 31.3228 59.0543 34.9161L54.2248 38.017C53.1615 36.1104 52.0143 35.3592 50.2334 35.3592C48.4168 35.3592 47.2655 36.5116 47.2655 38.017C47.2655 39.8776 48.4178 40.6309 51.0788 41.7832L52.6293 42.4474C57.8988 44.7071 60.874 47.0109 60.874 52.1903C60.874 57.7741 56.4876 60.8331 50.5969 60.8331C44.8371 60.8331 41.1159 58.0884 39.2952 54.4909L44.3353 51.5628ZM22.4264 52.1002C23.4007 53.8288 24.287 55.2902 26.4178 55.2902C28.4555 55.2902 29.7409 54.4929 29.7409 51.393V30.3045H35.9428V51.4769C35.9428 57.8988 32.1776 60.8216 26.6818 60.8216C21.7161 60.8216 18.8404 58.2518 17.3779 55.1566L22.4264 52.1002Z" fill="black"/>
</svg>
