<svg width="71" height="64" viewBox="0 0 71 64" fill="none" xmlns="http://www.w3.org/2000/svg">
<path d="M35.4779 38.3508C38.9237 38.3508 41.717 35.5251 41.717 32.0394C41.717 28.5537 38.9237 25.728 35.4779 25.728C32.0321 25.728 29.2388 28.5537 29.2388 32.0394C29.2388 35.5251 32.0321 38.3508 35.4779 38.3508Z" fill="#87C440"/>
<path fill-rule="evenodd" clip-rule="evenodd" d="M29.1058 20.8468C27.9417 22.5737 26.8045 24.4015 25.7109 26.3175C24.6151 28.2376 23.6169 30.1519 22.7189 32.0393C23.6169 33.9267 24.6151 35.8411 25.7109 37.7611C26.8045 39.6771 27.9417 41.5049 29.1058 43.2318C31.1636 43.3878 33.2942 43.47 35.4783 43.47C37.6624 43.47 39.793 43.3878 41.8508 43.2318C43.0149 41.5049 44.1521 39.6771 45.2456 37.7611C46.3414 35.841 47.3396 33.9267 48.2376 32.0393C47.3396 30.1519 46.3414 28.2376 45.2456 26.3175C44.1521 24.4015 43.0149 22.5737 41.8508 20.8468C39.793 20.6908 37.6624 20.6087 35.4783 20.6087C33.2942 20.6087 31.1636 20.6908 29.1058 20.8468ZM25.2701 21.2324C24.5322 22.3967 23.8093 23.5972 23.1054 24.8305C22.4101 26.0489 21.7513 27.2675 21.1302 28.4815C20.2498 26.3712 19.5029 24.3138 18.8934 22.3413C20.8872 21.8895 23.0225 21.5157 25.2701 21.2324ZM31.3348 17.7051C32.6944 17.6414 34.0772 17.6087 35.4783 17.6087C36.8793 17.6087 38.2621 17.6414 39.6217 17.7051C38.2536 15.8739 36.864 14.1866 35.4783 12.6627C34.0925 14.1866 32.7029 15.8739 31.3348 17.7051ZM33.3969 10.4928C31.3809 12.6953 29.3727 15.2092 27.437 17.9774C24.1119 18.2882 20.967 18.7881 18.0824 19.4492C17.7505 18.125 17.4879 16.8508 17.2957 15.6377C16.7994 12.5037 16.7869 9.85794 17.2132 7.8422C17.6399 5.82401 18.4623 4.60923 19.4956 4.00576C20.525 3.40455 21.9659 3.29234 23.897 3.9243C25.8288 4.55651 28.0835 5.88695 30.517 7.8877C31.4627 8.6652 32.4256 9.53585 33.3969 10.4928ZM37.5596 10.4928C39.5756 12.6953 41.5838 15.2092 43.5196 17.9774C46.8446 18.2882 49.9895 18.7881 52.8741 19.4492C53.206 18.125 53.4687 16.8508 53.6608 15.6377C54.1572 12.5037 54.1696 9.85794 53.7434 7.8422C53.3166 5.82401 52.4942 4.60923 51.4609 4.00576C50.4315 3.40455 48.9906 3.29234 47.0595 3.9243C45.1277 4.5565 42.8731 5.88694 40.4395 7.8877C39.4938 8.6652 38.5309 9.53585 37.5596 10.4928ZM55.78 20.1948C56.1347 18.7815 56.4167 17.4151 56.6239 16.107C57.1534 12.7636 57.207 9.72108 56.6785 7.22159C56.1505 4.72453 54.9975 2.5971 52.9739 1.41522C50.9464 0.231081 48.5382 0.283816 46.1264 1.07309C43.7154 1.86213 41.1332 3.43363 38.5343 5.57035C37.525 6.40011 36.5035 7.32317 35.4783 8.33202C34.453 7.32317 33.4315 6.40011 32.4222 5.57035C29.8233 3.43363 27.2411 1.86213 24.8301 1.0731C22.4183 0.283818 20.0101 0.231083 17.9826 1.41522C15.959 2.5971 14.806 4.72453 14.2781 7.22159C13.7495 9.72108 13.8031 12.7636 14.3327 16.107C14.5398 17.4151 14.8218 18.7815 15.1765 20.1948C13.7931 20.59 12.4857 21.0252 11.2651 21.4967C8.13469 22.7058 5.49868 24.1824 3.6194 25.8985C1.73937 27.6153 0.5 29.6884 0.5 32.0393C0.5 34.3902 1.73937 36.4634 3.6194 38.1802C5.49868 39.8963 8.13469 41.3728 11.2651 42.5819C12.4857 43.0534 13.7931 43.4886 15.1765 43.8839C14.8218 45.2971 14.5398 46.6635 14.3327 47.9716C13.8031 51.315 13.7495 54.3575 14.2781 56.857C14.806 59.3541 15.959 61.4815 17.9826 62.6634C20.0101 63.8475 22.4183 63.7948 24.8301 63.0055C27.2411 62.2165 29.8233 60.645 32.4222 58.5083C33.4315 57.6785 34.453 56.7554 35.4783 55.7466C36.5035 56.7554 37.525 57.6785 38.5343 58.5083C41.1332 60.645 43.7154 62.2165 46.1264 63.0055C48.5382 63.7948 50.9464 63.8475 52.9739 62.6634C54.9975 61.4815 56.1505 59.3541 56.6785 56.857C57.207 54.3575 57.1534 51.315 56.6239 47.9716C56.4167 46.6635 56.1347 45.2971 55.78 43.8839C57.1634 43.4886 58.4708 43.0534 59.6914 42.5819C62.8218 41.3728 65.4578 39.8963 67.3371 38.1802C69.2171 36.4634 70.4565 34.3902 70.4565 32.0393C70.4565 29.6884 69.2171 27.6153 67.3371 25.8985C65.4578 24.1824 62.8218 22.7058 59.6914 21.4967C58.4708 21.0252 57.1634 20.59 55.78 20.1948ZM52.0632 22.3413C50.0693 21.8895 47.934 21.5157 45.6864 21.2324C46.4244 22.3967 47.1472 23.5972 47.8511 24.8305C48.5465 26.0489 49.2052 27.2675 49.8264 28.4815C50.7067 26.3712 51.4536 24.3138 52.0632 22.3413ZM51.5466 32.0393C52.948 28.9622 54.0956 25.9489 54.9733 23.0843C56.2659 23.4541 57.4817 23.8592 58.6105 24.2952C61.5385 25.4261 63.8052 26.7359 65.3141 28.1138C66.8223 29.491 67.4565 30.8195 67.4565 32.0393C67.4565 33.2591 66.8223 34.5876 65.3141 35.9648C63.8052 37.3427 61.5385 38.6525 58.6105 39.7834C57.4817 40.2194 56.266 40.6245 54.9734 40.9943C54.0956 38.1297 52.948 35.1164 51.5466 32.0393ZM49.8264 35.5972C49.2052 36.8111 48.5465 38.0298 47.8511 39.2482C47.1472 40.4814 46.4244 41.6819 45.6864 42.8462C47.934 42.5629 50.0693 42.1891 52.0632 41.7373C51.4536 39.7648 50.7067 37.7075 49.8264 35.5972ZM52.8741 44.6294C49.9895 45.2906 46.8446 45.7904 43.5196 46.1012C41.5838 48.8694 39.5756 51.3833 37.5596 53.5858C38.5309 54.5428 39.4938 55.4134 40.4395 56.1909C42.8731 58.1917 45.1277 59.5221 47.0595 60.1543C48.9906 60.7863 50.4315 60.6741 51.4609 60.0729C52.4942 59.4694 53.3166 58.2546 53.7434 56.2364C54.1696 54.2207 54.1572 51.575 53.6608 48.4409C53.4687 47.2278 53.206 45.9536 52.8741 44.6294ZM35.4783 51.416C36.864 49.892 38.2536 48.2047 39.6217 46.3736C38.2621 46.4373 36.8793 46.47 35.4783 46.47C34.0772 46.47 32.6944 46.4373 31.3348 46.3736C32.7029 48.2047 34.0925 49.892 35.4783 51.416ZM25.2701 42.8462C24.5322 41.6819 23.8093 40.4814 23.1054 39.2482C22.4101 38.0298 21.7513 36.8111 21.1302 35.5972C20.2498 37.7075 19.5029 39.7648 18.8934 41.7373C20.8872 42.1891 23.0225 42.5629 25.2701 42.8462ZM18.0824 44.6294C20.967 45.2906 24.1119 45.7904 27.437 46.1012C29.3727 48.8694 31.3809 51.3833 33.3969 53.5858C32.4256 54.5428 31.4627 55.4134 30.517 56.1909C28.0835 58.1917 25.8288 59.5221 23.897 60.1543C21.9659 60.7863 20.525 60.6741 19.4956 60.0729C18.4623 59.4694 17.6399 58.2546 17.2132 56.2364C16.7869 54.2207 16.7993 51.575 17.2957 48.4409C17.4879 47.2278 17.7505 45.9536 18.0824 44.6294ZM15.9832 40.9943C14.6906 40.6245 13.4748 40.2194 12.346 39.7834C9.41805 38.6525 7.15128 37.3427 5.64237 35.9648C4.13422 34.5876 3.5 33.2591 3.5 32.0393C3.5 30.8195 4.13422 29.491 5.64237 28.1138C7.15128 26.7359 9.41805 25.4261 12.346 24.2952C13.4748 23.8592 14.6906 23.4542 15.9832 23.0843C16.8609 25.9489 18.0086 28.9622 19.4099 32.0393C18.0086 35.1164 16.8609 38.1297 15.9832 40.9943ZM35.4779 27.228C32.8768 27.228 30.7388 29.3658 30.7388 32.0393C30.7388 34.7129 32.8768 36.8507 35.4779 36.8507C38.079 36.8507 40.217 34.7129 40.217 32.0393C40.217 29.3658 38.079 27.228 35.4779 27.228ZM27.7388 32.0393C27.7388 27.7416 31.1875 24.228 35.4779 24.228C39.7683 24.228 43.217 27.7416 43.217 32.0393C43.217 36.3371 39.7683 39.8507 35.4779 39.8507C31.1875 39.8507 27.7388 36.3371 27.7388 32.0393Z" fill="#87C440"/>
</svg>
